<svg xmlns="http://www.w3.org/2000/svg" width="14.3" height="28.3" viewBox="0 0 14.3 28.3">
  <g id="community" transform="translate(-17.35 -2.35)" opacity="0.7">
    <path id="Path_5809" data-name="Path 5809" d="M26.125,30.65a2.929,2.929,0,0,1-1.623-.484,2.938,2.938,0,0,1-4.552-2.383V22.934a3.5,3.5,0,0,1-1.668-.981,3.362,3.362,0,0,1-.932-2.321V14.483a4.185,4.185,0,0,1,4.225-4.133h5.85a4.185,4.185,0,0,1,4.225,4.133v5.149a3.368,3.368,0,0,1-.932,2.326,3.484,3.484,0,0,1-1.668.978v4.847A2.9,2.9,0,0,1,26.125,30.65ZM24.5,28.4l.464.467a1.629,1.629,0,0,0,1.164.48,1.6,1.6,0,0,0,1.625-1.567v-6l.6-.047a2.151,2.151,0,0,0,2-2.107V14.483a2.884,2.884,0,0,0-2.925-2.833h-5.85a2.884,2.884,0,0,0-2.925,2.833v5.149a2.159,2.159,0,0,0,2,2.107l.6.049v5.995a1.634,1.634,0,0,0,2.786,1.091Z" />
    <path id="Path_5810" data-name="Path 5810" d="M24.5,10.65A4.15,4.15,0,1,1,28.65,6.5,4.156,4.156,0,0,1,24.5,10.65Zm0-7A2.85,2.85,0,1,0,27.35,6.5,2.852,2.852,0,0,0,24.5,3.65Z"/>
  </g>
</svg>
