<svg xmlns="http://www.w3.org/2000/svg" width="25.917" height="26.3" viewBox="0 0 25.917 26.3">
  <path id="home_-_Outline" data-name="home - Outline" d="M8.818,26.65h-2.1a2.367,2.367,0,0,1-1.706-.715,2.429,2.429,0,0,1-.691-1.71V16H2.035A1.685,1.685,0,0,1,.8,13.166L12.219.888a1.685,1.685,0,0,1,2.469,0l.006.006,11.04,12.189A1.685,1.685,0,0,1,24.589,16h-2.4v8.226a2.442,2.442,0,0,1-2.453,2.425H17.693a1.835,1.835,0,0,1-1.833-1.833V20.379a.534.534,0,0,0-.533-.533H11.185a.534.534,0,0,0-.533.533v4.438A1.835,1.835,0,0,1,8.818,26.65Zm4.635-25a.386.386,0,0,0-.282.123L1.753,14.051a.385.385,0,0,0,.282.648H4.972a.65.65,0,0,1,.65.65v8.876a1.1,1.1,0,0,0,1.1,1.125h2.1a.534.534,0,0,0,.533-.533V20.379a1.835,1.835,0,0,1,1.833-1.833h4.142a1.835,1.835,0,0,1,1.833,1.833v4.438a.534.534,0,0,0,.533.533h2.043a1.155,1.155,0,0,0,1.154-1.125V15.349a.65.65,0,0,1,.65-.65h3.041a.385.385,0,0,0,.26-.67.649.649,0,0,1-.052-.051L13.733,1.771A.386.386,0,0,0,13.453,1.65Z" transform="translate(-0.35 -0.35)" />
</svg>
