<svg xmlns="http://www.w3.org/2000/svg" width="26.483" height="32.6" viewBox="0 0 26.483 32.6">
  <g id="journal" transform="translate(-9.517 0.3)" opacity="0.7">
    <path id="Rectangle_94" data-name="Rectangle 94" d="M3.35-.65h16a4,4,0,0,1,4,4v20a4,4,0,0,1-4,4h-16a4,4,0,0,1-4-4v-20A4,4,0,0,1,3.35-.65Zm16,26.7a2.7,2.7,0,0,0,2.7-2.7v-20a2.7,2.7,0,0,0-2.7-2.7h-16a2.7,2.7,0,0,0-2.7,2.7v20a2.7,2.7,0,0,0,2.7,2.7Z" transform="translate(12.65 2.65)"/>
    <rect id="Rectangle_95" data-name="Rectangle 95" width="5" height="30" rx="1" transform="translate(27 1)"/>
    <path id="Rectangle_95_-_Outline" data-name="Rectangle 95 - Outline" d="M1-1.3H4A2.3,2.3,0,0,1,6.3,1V29A2.3,2.3,0,0,1,4,31.3H1A2.3,2.3,0,0,1-1.3,29V1A2.3,2.3,0,0,1,1-1.3ZM3.7,1.3H1.3V28.7H3.7Z" transform="translate(27 1)"/>
    <path id="Path_5809" data-name="Path 5809" d="M12.483,9.15H9.517V7.85h2.967Z"/>
    <path id="Path_5810" data-name="Path 5810" d="M12.483,16.15H9.517v-1.3h2.967Z"/>
    <path id="Path_5811" data-name="Path 5811" d="M12.483,23.15H9.517v-1.3h2.967Z"/>
  </g>
</svg>
