<svg xmlns="http://www.w3.org/2000/svg" width="31.198" height="29.198" viewBox="0 0 31.198 29.198">
  <g id="progress" transform="translate(-8.401 -1.401)" opacity="0.7">
    <path id="Path_5812" data-name="Path 5812" d="M36.764,30.6H34.158a2.7,2.7,0,0,1-2.826-2.568l0-.042-.744-10.447c-.021-.228-.037-.462-.049-.7-.1.3-.19.584-.275.838l0,.01-2.233,6.341a3,3,0,0,1-2.987,2.085H22.8a2.868,2.868,0,0,1-2.987-2.085L17.58,17.683c-.084-.254-.177-.538-.275-.838-.012.236-.029.47-.049.7l-.748,10.489A2.7,2.7,0,0,1,13.682,30.6H11.076a2.7,2.7,0,0,1-2.127-.791,2.584,2.584,0,0,1-.517-2.1L10.11,3.969A2.7,2.7,0,0,1,12.936,1.4h3.537a2.868,2.868,0,0,1,2.987,2.085l3.544,10.1c.255.852.59,1.907.878,2.8.272-.9.617-1.958.966-2.835L28.376,3.5a2.694,2.694,0,0,1,2.991-2.1H34.9a2.7,2.7,0,0,1,2.826,2.568l0,.037L39.6,27.737v.024A2.56,2.56,0,0,1,36.764,30.6ZM32.52,27.882A1.513,1.513,0,0,0,34.158,29.4h2.606c1.154,0,1.63-.469,1.637-1.618L36.542,4.12C36.39,3.082,35.869,2.6,34.9,2.6H31.367c-1.141,0-1.572.291-1.844,1.245l-.011.034-3.546,10.1c-.724,1.813-1.459,4.571-1.467,4.6l-.515,1.937-.633-1.9c-.009-.028-.936-2.816-1.491-4.67L18.326,3.869A1.678,1.678,0,0,0,16.474,2.6H12.936A1.513,1.513,0,0,0,11.3,4.118L9.622,27.834a1.48,1.48,0,0,0,.224,1.18,1.6,1.6,0,0,0,1.23.386h2.606a1.513,1.513,0,0,0,1.637-1.519l.743-10.443a34.451,34.451,0,0,0,0-4.57l1.169-.221c.009.03.934,2.995,1.484,4.651l2.235,6.351a1.678,1.678,0,0,0,1.852,1.27h2.233a1.825,1.825,0,0,0,1.852-1.27l0-.01L29.124,17.3c.55-1.656,1.475-4.621,1.484-4.651l1.169.221a34.5,34.5,0,0,0,0,4.57v.011Z" />
  </g>
</svg>
