<svg xmlns="http://www.w3.org/2000/svg" width="24.257" height="24.302" viewBox="0 0 24.257 24.302">
  <g id="settings" transform="translate(-12.35 -4.35)">
    <path id="Path_5813" data-name="Path 5813" d="M35.571,9.167l.61-.225-.352-.952-.718.718Zm-.718.718.46.46h0Zm-.671,5.891.46.46.006-.006.006-.006Zm-5.987,1.676.161-.63L28,16.731l-.262.262Zm-9.579,9.579-.46-.46Zm-4.646,0-.46.46Zm0-4.646-.46-.46h0Zm9.579-9.579.46.46L24.271,13l-.092-.359Zm1.628-5.939.453.466.007-.006.006-.007Zm6.61-1.485.46.46.723-.723-.962-.348Zm-.718.718.46.46h0ZM28.147,9.023l-.46-.46-.25.25.074.346Zm.671,3.113-.635.137.088.41.41.088Zm3.113.67-.137.635.346.075.25-.25ZM17.323,25.691l-.46-.46h0Zm-2.059,0,.46-.46h0Zm2.059-2.06.46-.46Zm-2.059,0,.46.46h0ZM35.111,8.707l-.718.718.919.919.719-.718Zm-.458,7.516a7.062,7.062,0,0,0,1.527-7.282l-1.219.451a5.762,5.762,0,0,1-1.251,5.937Zm-6.62,1.859a6.938,6.938,0,0,0,6.608-1.847l-.919-.919a5.638,5.638,0,0,1-5.366,1.506Zm-8.958,9.409,9.579-9.579-.919-.919-9.579,9.579Zm-5.565,0a3.917,3.917,0,0,0,5.565,0l-.919-.919a2.617,2.617,0,0,1-3.727,0Zm0-5.565a3.917,3.917,0,0,0,0,5.565l.919-.919a2.617,2.617,0,0,1,0-3.727Zm9.579-9.579L13.51,21.927l.919.919,9.579-9.579ZM24.725,6.4a6.8,6.8,0,0,0-1.806,6.567l1.259-.322A5.5,5.5,0,0,1,25.63,7.334Zm7.283-1.63a6.869,6.869,0,0,0-7.3,1.643l.931.907a5.569,5.569,0,0,1,5.923-1.327Zm-.48,1.789.718-.718-.919-.919-.718.718ZM28.607,9.483l2.922-2.922-.919-.919L27.688,8.564ZM29.453,12l-.67-3.113-1.271.274.671,3.113Zm2.615.172L28.955,11.5l-.274,1.271,3.113.67Zm2.325-2.746-2.922,2.922.919.919,2.922-2.922ZM16.863,25.231a.8.8,0,0,1-1.14,0l-.919.919a2.1,2.1,0,0,0,2.979,0Zm0-1.14a.8.8,0,0,1,0,1.14l.919.919a2.1,2.1,0,0,0,0-2.979Zm-1.14,0a.8.8,0,0,1,1.14,0l.919-.919a2.1,2.1,0,0,0-2.979,0Zm0,1.14a.8.8,0,0,1,0-1.14l-.919-.919a2.1,2.1,0,0,0,0,2.979Z" />
  </g>
</svg>
